<?xml version="1.0" encoding="UTF-8"?><svg id="Layer_2" xmlns="http://www.w3.org/2000/svg" xmlns:xlink="http://www.w3.org/1999/xlink" viewBox="0 0 80 80"><defs><style>.cls-1,.cls-2,.cls-3,.cls-4{fill:none;}.cls-5{fill:url(#linear-gradient);}.cls-2{clip-path:url(#clippath-1);}.cls-3{stroke:#b1e3fa;stroke-miterlimit:10;stroke-width:.1px;}.cls-6{fill:#004d6d;}.cls-7{fill:#fff;}.cls-8{fill:#b8a17a;}.cls-9{fill:#1782c5;}.cls-10{fill:#231f20;}.cls-11{fill:url(#linear-gradient-8);}.cls-12{fill:url(#linear-gradient-9);}.cls-13{fill:url(#linear-gradient-3);}.cls-14{fill:url(#linear-gradient-4);}.cls-15{fill:url(#linear-gradient-2);}.cls-16{fill:url(#linear-gradient-6);}.cls-17{fill:url(#linear-gradient-7);}.cls-18{fill:url(#linear-gradient-5);}.cls-19{fill:url(#linear-gradient-14);}.cls-20{fill:url(#linear-gradient-18);}.cls-21{fill:url(#linear-gradient-22);}.cls-22{fill:url(#linear-gradient-20);}.cls-23{fill:url(#linear-gradient-21);}.cls-24{fill:url(#linear-gradient-23);}.cls-25{fill:url(#linear-gradient-15);}.cls-26{fill:url(#linear-gradient-19);}.cls-27{fill:url(#linear-gradient-16);}.cls-28{fill:url(#linear-gradient-17);}.cls-29{fill:url(#linear-gradient-13);}.cls-30{fill:url(#linear-gradient-12);}.cls-31{fill:url(#linear-gradient-10);}.cls-32{fill:url(#linear-gradient-11);}.cls-33{fill:url(#linear-gradient-27);}.cls-34{fill:url(#linear-gradient-24);}.cls-35{fill:url(#linear-gradient-26);}.cls-36{fill:url(#linear-gradient-25);}.cls-37{fill:url(#linear-gradient-28);}.cls-38{fill:url(#linear-gradient-29);}.cls-39{fill:url(#linear-gradient-33);}.cls-40{fill:url(#linear-gradient-30);}.cls-41{fill:url(#linear-gradient-32);}.cls-42{fill:url(#linear-gradient-31);}.cls-4{clip-path:url(#clippath);}</style><linearGradient id="linear-gradient" x1="39.56" y1="18.32" x2="40.56" y2="79.06" gradientUnits="userSpaceOnUse"><stop offset="0" stop-color="#034d79"/><stop offset=".03" stop-color="#075889"/><stop offset=".08" stop-color="#0d679f"/><stop offset=".14" stop-color="#1173b0"/><stop offset=".21" stop-color="#147bbc"/><stop offset=".31" stop-color="#1680c3"/><stop offset=".59" stop-color="#1782c5"/><stop offset=".71" stop-color="#1680c2"/><stop offset=".78" stop-color="#1479b9"/><stop offset=".84" stop-color="#116faa"/><stop offset=".9" stop-color="#0d6095"/><stop offset=".95" stop-color="#074c7a"/><stop offset="1" stop-color="#003559"/><stop offset="1" stop-color="#003458"/></linearGradient><linearGradient id="linear-gradient-2" x1="40" y1="64.48" x2="40" y2="-.3" gradientUnits="userSpaceOnUse"><stop offset="0" stop-color="#aa7129"/><stop offset="1" stop-color="#be9b65"/></linearGradient><linearGradient id="linear-gradient-3" x1="41.71" y1="52.93" x2="43.41" y2="52.93" gradientUnits="userSpaceOnUse"><stop offset="0" stop-color="#aa7129"/><stop offset="1" stop-color="#be9b65"/><stop offset="1" stop-color="#000"/></linearGradient><linearGradient id="linear-gradient-4" x1="42.29" y1="55.04" x2="45.23" y2="55.04" xlink:href="#linear-gradient-3"/><linearGradient id="linear-gradient-5" x1="43.89" y1="52.57" x2="45.49" y2="52.57" xlink:href="#linear-gradient-3"/><linearGradient id="linear-gradient-6" x1="44.66" y1="54.54" x2="47.46" y2="54.54" xlink:href="#linear-gradient-3"/><linearGradient id="linear-gradient-7" x1="45.99" y1="52.08" x2="47.47" y2="52.08" xlink:href="#linear-gradient-3"/><linearGradient id="linear-gradient-8" x1="46.63" y1="53.8" x2="49.46" y2="53.8" xlink:href="#linear-gradient-3"/><linearGradient id="linear-gradient-9" x1="48.25" y1="51.38" x2="49.55" y2="51.38" xlink:href="#linear-gradient-3"/><linearGradient id="linear-gradient-10" x1="48.91" y1="52.8" x2="51.56" y2="52.8" xlink:href="#linear-gradient-3"/><linearGradient id="linear-gradient-11" x1="50.35" y1="50.55" x2="51.44" y2="50.55" xlink:href="#linear-gradient-3"/><linearGradient id="linear-gradient-12" x1="51.02" y1="51.63" x2="53.41" y2="51.63" xlink:href="#linear-gradient-3"/><linearGradient id="linear-gradient-13" x1="51.91" y1="49.59" x2="52.81" y2="49.59" xlink:href="#linear-gradient-3"/><linearGradient id="linear-gradient-14" x1="52.78" y1="50.43" x2="54.78" y2="50.43" xlink:href="#linear-gradient-3"/><linearGradient id="linear-gradient-15" x1="53.3" y1="48.54" x2="54.1" y2="48.54" xlink:href="#linear-gradient-3"/><linearGradient id="linear-gradient-16" x1="54.06" y1="49.04" x2="55.47" y2="49.04" xlink:href="#linear-gradient-3"/><linearGradient id="linear-gradient-17" x1="54.59" y1="47.53" x2="55.3" y2="47.53" xlink:href="#linear-gradient-3"/><linearGradient id="linear-gradient-18" x1="25.26" y1="52.3" x2="54.74" y2="52.3" xlink:href="#linear-gradient-3"/><linearGradient id="linear-gradient-19" x1="36.59" y1="52.93" x2="38.29" y2="52.93" xlink:href="#linear-gradient-3"/><linearGradient id="linear-gradient-20" x1="34.77" y1="55.04" x2="37.71" y2="55.04" xlink:href="#linear-gradient-3"/><linearGradient id="linear-gradient-21" x1="34.51" y1="52.57" x2="36.11" y2="52.57" xlink:href="#linear-gradient-3"/><linearGradient id="linear-gradient-22" x1="32.54" y1="54.54" x2="35.34" y2="54.54" xlink:href="#linear-gradient-3"/><linearGradient id="linear-gradient-23" x1="32.53" y1="52.08" x2="34.01" y2="52.08" xlink:href="#linear-gradient-3"/><linearGradient id="linear-gradient-24" x1="30.54" y1="53.8" x2="33.37" y2="53.8" xlink:href="#linear-gradient-3"/><linearGradient id="linear-gradient-25" x1="30.45" y1="51.38" x2="31.75" y2="51.38" xlink:href="#linear-gradient-3"/><linearGradient id="linear-gradient-26" x1="28.44" y1="52.8" x2="31.09" y2="52.8" xlink:href="#linear-gradient-3"/><linearGradient id="linear-gradient-27" x1="28.56" y1="50.55" x2="29.65" y2="50.55" xlink:href="#linear-gradient-3"/><linearGradient id="linear-gradient-28" x1="26.59" y1="51.63" x2="28.98" y2="51.63" xlink:href="#linear-gradient-3"/><linearGradient id="linear-gradient-29" x1="27.19" y1="49.59" x2="28.09" y2="49.59" xlink:href="#linear-gradient-3"/><linearGradient id="linear-gradient-30" x1="25.22" y1="50.43" x2="27.22" y2="50.43" xlink:href="#linear-gradient-3"/><linearGradient id="linear-gradient-31" x1="25.9" y1="48.54" x2="26.7" y2="48.54" xlink:href="#linear-gradient-3"/><linearGradient id="linear-gradient-32" x1="24.53" y1="49.04" x2="25.94" y2="49.04" xlink:href="#linear-gradient-3"/><linearGradient id="linear-gradient-33" x1="24.7" y1="47.53" x2="25.41" y2="47.53" xlink:href="#linear-gradient-3"/><clipPath id="clippath"><path class="cls-1" d="m32.89,17.49c-.3,0-.44,0-.41.14.01.07.11.08.16.1.27.08.46.22.38.52-.08.3-1.31,3.9-1.31,3.9-.04.14-.16.16-.2-.03l-.64-3.04c-.05-.25-.11-.57-.14-.71,0,0-.04-.2-.27-.2-.18,0-.25.12-.27.16-.07.19-.23.5-.34.74l-1.61,3.11c-.07.11-.15.08-.16-.05l-.21-3.15c0-.25-.03-.74-.03-.82,0-.2.14-.37.33-.42.04-.01.15-.04.16-.11.03-.12-.11-.12-.41-.12h-1.22c-.18.01-.27.03-.28.11h0s0,.02,0,.03c.01.07.11.08.16.1.14.04.22.12.27.25.02.04.03.09.04.14v.07c.07.25.12.61.14.85l.26,3.84c.01.26.01.63.08.78.08.16.44.15.57-.07.04-.05,2.05-3.86,2.05-3.86.12-.23.26-.2.3.04l.63,3.12c.05.25.11.53.16.68.08.23.52.19.63-.03.1-.19.2-.45.29-.69.01.03,1.67-4.51,1.75-4.72.04-.11.14-.31.26-.38.07-.04.19-.03.22-.12s-.05-.12-.38-.12h-.97Zm3.79,5.28c0-.98,1.07-2.81,2.15-2.81.4,0,.52.29.52.61.01.38-.15.9-.4,1.39-.19.4-.45.76-.74,1.05-.3.3-.66.51-1,.51-.4,0-.53-.38-.53-.75m-1.71-2.89c.23,0,.36.15.36.38,0,.95-1.05,1.38-1.86,1.43.14-.59.83-1.81,1.5-1.81m2.02-2.39c-.3,0-.44,0-.41.14.01.07.11.08.16.1.29.08.4.41.31.76l-.74,2.92c-.05.25-.27.6-.46.78,0,0-.89,1.09-1.78,1.09-.41,0-.71-.23-.71-.67,0-.23.01-.42.07-.65.92-.1,2.58-.53,2.58-1.73,0-.48-.46-.63-.86-.63-1.27,0-2.51,1.55-2.51,2.96,0,.59.27,1.19,1.08,1.19,1.5,0,2.34-1.49,2.38-1.53,0,0-.07.37-.07.59,0,.64.46.94,1.04.94.42,0,.86-.15,1.28-.4.33-.2.63-.45.87-.75.49-.56.82-1.24.82-1.88s-.29-1.1-.98-1.1h0c-.78,0-1.5.72-1.97,1.27-.01-.01.04-.22.11-.46l.74-2.47c.05-.25-.08-.45-.34-.45h-.61Z"/></clipPath><clipPath id="clippath-1"><path class="cls-1" d="m48.9,23.01c-.1-.1-.15-.25-.15-.45v-2.88c0-.59-.01-.87,0-1.54.46-.05.7-.07,1.07-.07.68,0,1.39.1,1.98.75.41.46.6,1.04.6,1.76.03,1.58-.97,2.62-2.51,2.62h-.05c-.36,0-.74,0-.93-.19m1.3-5.51h-2.6c-.3,0-.41.03-.38.15.01.07.11.1.16.11.19.05.33.15.33.34.01.22.04.89.04,1.13v4.06c0,.26.21.48.46.48h1.54s1.11,0,1.91-.37c1.2-.55,1.9-1.61,1.9-2.9-.01-1-.41-1.88-1.08-2.4-.73-.58-2.06-.6-2.27-.6h-.03m-4.47.03c-.04.05-.12.23-.22.48l-.45,1.02c-.12.23-.31.63-.44.86l-.7,1.34c-.12.23-.31.23-.44,0l-.72-1.34c-.12-.23-.33-.6-.45-.83l-.51-1.08c-.11-.22-.15-.41-.2-.45-.04-.04-.23-.04-.48-.04h-.61c-.3,0-.44,0-.42.14.01.07.12.08.16.1.19.05.26.29.26.4s0,4.68-.03,4.88c0,.03-.01.07-.01.11h-.01c-.04.2-.15.35-.33.41-.04.01-.15.03-.16.11-.01.12.12.14.42.14h1c.3,0,.44,0,.42-.14-.01-.07-.11-.1-.16-.11-.19-.05-.26-.18-.33-.4-.02-.11-.04-.23-.05-.34-.01-.26-.01-.68-.01-.94v-.08c0-.26.01-.68.01-.94l.03-1.02c0-.26.11-.29.23-.05l.67,1.25.89,1.68c.1.19.12.27.42.27.34,0,.34-.1.48-.39.11-.22,1.54-3.07,1.54-3.07.12-.23.22-.2.23.05,0,0,.01,3.46,0,3.63v.05c-.07.15-.16.26-.33.31-.04.01-.15.03-.16.11-.01.12.12.14.42.14h1.27c.3,0,.44,0,.42-.14-.01-.1-.12-.11-.16-.14h0c-.19-.07-.33-.29-.33-.4s-.12-5.13-.12-5.13c0-.26,0-.45-.07-.48-.08-.01-.44-.01-.53-.01-.23,0-.4,0-.44.04"/></clipPath></defs><path class="cls-5" d="m40,79.95c-1.54,0-2.99-.22-4.08-.63l-15.6-5.83c-2.26-.84-4.1-3.49-4.1-5.9V22.75c0-2.42,1.97-4.39,4.39-4.39h38.78c2.42,0,4.39,1.97,4.39,4.39v44.84c0,2.41-1.84,5.06-4.1,5.9l-15.6,5.83c-1.09.41-2.54.63-4.08.63Z"/><path class="cls-6" d="m59.39,18.41c2.39,0,4.34,1.95,4.34,4.34v44.84c0,2.39-1.83,5.02-4.06,5.86l-15.6,5.83c-1.12.42-2.59.63-4.06.63s-2.95-.21-4.06-.63l-15.6-5.83c-2.23-.84-4.06-3.47-4.06-5.86V22.75c0-2.39,1.95-4.34,4.34-4.34h38.78m0-.1H20.61c-2.45,0-4.44,1.99-4.44,4.44v44.84c0,2.43,1.85,5.1,4.13,5.95l15.6,5.83c1.09.41,2.55.63,4.1.63s3.01-.22,4.1-.63l15.6-5.83c2.28-.85,4.13-3.52,4.13-5.95V22.75c0-2.45-1.99-4.44-4.44-4.44h0Z"/><path class="cls-3" d="m62.9,67.64c0,1.97-1.51,4.14-3.35,4.84l-16.2,6.11c-1.84.69-4.85.69-6.69,0l-16.2-6.11c-1.84-.69-3.35-2.87-3.35-4.84V22.93c0-1.97,1.61-3.58,3.58-3.58h38.64c1.97,0,3.58,1.61,3.58,3.58v44.71Z"/><circle class="cls-7" cx="40" cy="32.31" r="31.67"/><path class="cls-15" d="m40,64.62c-17.82,0-32.31-14.49-32.31-32.31S22.18,0,40,0s32.31,14.49,32.31,32.31-14.49,32.31-32.31,32.31Zm0-63.34c-17.11,0-31.03,13.92-31.03,31.03s13.92,31.03,31.03,31.03,31.03-13.92,31.03-31.03S57.11,1.28,40,1.28Z"/><path class="cls-8" d="m40,61.78c-16.25,0-29.48-13.22-29.48-29.48S23.75,2.83,40,2.83s29.48,13.22,29.48,29.48-13.22,29.48-29.48,29.48Zm0-58.63c-16.08,0-29.16,13.08-29.16,29.16s13.08,29.16,29.16,29.16,29.16-13.08,29.16-29.16S56.08,3.15,40,3.15Z"/><path class="cls-8" d="m50.97,13.12c-.03.06-.07.1-.11.14-.05.04-.1.07-.15.09s-.11.03-.17.02c-.06,0-.12-.02-.18-.05-.06-.03-.1-.07-.14-.11-.04-.05-.07-.1-.09-.15-.02-.06-.03-.11-.02-.17,0-.06.02-.12.05-.18.03-.06.07-.1.11-.14.05-.04.1-.07.15-.09s.11-.03.17-.02c.06,0,.12.02.18.05.06.03.1.07.14.11.04.05.07.1.09.15.02.06.03.11.02.17,0,.06-.02.12-.05.18Z"/><path class="cls-8" d="m48.99,12.19c-.02.06-.06.11-.1.15-.04.04-.09.08-.14.1s-.11.04-.17.04c-.06,0-.12,0-.18-.03-.06-.02-.11-.06-.15-.1s-.08-.09-.1-.14c-.02-.05-.04-.11-.04-.17,0-.06,0-.12.03-.18.02-.06.06-.11.1-.15.04-.04.09-.08.14-.1s.11-.04.17-.04.12,0,.18.03c.06.02.11.06.15.1s.08.09.1.14c.02.05.04.11.04.17,0,.06,0,.12-.03.18Z"/><path class="cls-8" d="m46.93,11.46c-.02.06-.05.12-.08.16-.04.05-.08.08-.13.11s-.11.05-.17.05c-.06,0-.12,0-.18-.01s-.12-.05-.16-.08c-.05-.04-.08-.08-.11-.13-.03-.05-.05-.11-.05-.17,0-.06,0-.12.01-.18.02-.06.05-.12.08-.16.04-.05.08-.08.13-.11.05-.03.11-.05.17-.05.06,0,.12,0,.18.01.06.02.12.05.16.08.05.04.08.08.11.13.03.05.05.11.05.17,0,.06,0,.12-.01.18Z"/><path class="cls-8" d="m44.8,10.91c-.01.06-.03.12-.07.17-.03.05-.07.09-.12.12s-.1.06-.16.07-.12.01-.18,0c-.06-.01-.12-.03-.17-.07-.05-.03-.09-.07-.12-.12-.03-.05-.06-.1-.07-.16-.01-.06-.01-.12,0-.18s.03-.12.07-.17c.03-.05.07-.09.12-.12.05-.03.1-.06.16-.07s.12-.01.18,0c.06.01.12.03.17.07.05.03.09.07.12.12s.06.1.07.16c.01.06.01.12,0,.18Z"/><path class="cls-8" d="m42.64,10.57c0,.06-.02.12-.05.17s-.07.1-.11.14c-.05.04-.1.07-.15.08-.06.02-.12.03-.18.02-.06,0-.12-.02-.17-.05-.05-.03-.1-.07-.13-.11-.04-.05-.07-.1-.08-.15-.02-.06-.03-.12-.02-.18s.02-.12.05-.17c.03-.05.07-.1.11-.14.05-.04.1-.07.15-.08.06-.02.12-.03.18-.02.06,0,.12.02.17.05.05.03.1.07.14.11.04.05.07.1.08.15.02.06.03.12.02.18Z"/><path class="cls-8" d="m40.4,10.43c0,.06-.01.12-.04.18-.02.05-.06.1-.1.14-.04.04-.09.07-.15.1s-.12.03-.18.03c-.06,0-.12-.01-.18-.04-.05-.03-.1-.06-.14-.1-.04-.04-.07-.09-.1-.15s-.03-.12-.03-.18c0-.06.01-.12.04-.18.02-.05.06-.1.1-.14s.09-.07.15-.1c.06-.02.12-.03.18-.03.06,0,.12.01.18.04.05.02.1.06.14.1s.07.09.1.15.03.12.03.18Z"/><path class="cls-8" d="m38.27,10.48c0,.06,0,.12-.02.18-.02.06-.05.11-.08.15-.04.04-.08.08-.14.11s-.11.05-.17.05c-.06,0-.12,0-.18-.02-.06-.02-.11-.05-.15-.08-.04-.04-.08-.08-.11-.14-.03-.05-.05-.11-.05-.17,0-.06,0-.12.02-.18s.05-.11.08-.15.08-.08.14-.11c.05-.03.11-.05.17-.05.06,0,.12,0,.18.02.06.02.11.05.15.08s.08.08.11.14.05.11.05.17Z"/><path class="cls-8" d="m36.1,10.74c.01.06.01.12,0,.18s-.04.11-.07.16c-.03.05-.07.09-.12.12-.05.03-.11.06-.17.07-.06.01-.12.01-.18,0-.06-.01-.11-.04-.16-.07-.05-.03-.09-.07-.12-.12-.03-.05-.06-.11-.07-.17-.01-.06-.01-.12,0-.18s.04-.11.07-.16c.03-.05.07-.09.12-.12.05-.03.11-.06.17-.07.06-.01.12-.01.18,0s.11.04.16.07c.05.03.09.07.12.12.03.05.06.11.07.17Z"/><path class="cls-8" d="m33.95,11.19c.02.06.02.12.01.18,0,.06-.03.11-.06.17-.03.05-.07.1-.11.13-.05.04-.1.07-.16.08-.06.02-.12.02-.18.01-.06,0-.11-.03-.17-.06-.05-.03-.1-.07-.13-.11-.04-.05-.07-.1-.08-.16-.02-.06-.02-.12-.01-.18,0-.06.03-.11.06-.17.03-.05.07-.1.11-.13s.1-.07.16-.08c.06-.02.12-.02.18-.01.06,0,.11.03.17.06s.1.07.13.11c.04.05.07.1.08.16Z"/><path class="cls-8" d="m31.86,11.85c.02.06.03.12.03.18,0,.06-.02.12-.04.17-.02.05-.06.1-.1.14s-.09.08-.15.1c-.06.02-.12.03-.18.03-.06,0-.12-.02-.17-.04s-.1-.06-.14-.1c-.04-.04-.07-.09-.1-.15s-.03-.12-.03-.18c0-.06.02-.12.04-.17.02-.05.06-.1.1-.14.04-.04.09-.08.15-.1s.12-.03.18-.03c.06,0,.12.02.17.04s.1.06.14.1c.04.04.07.09.1.15Z"/><path class="cls-8" d="m29.85,12.69c.03.06.04.12.05.18,0,.06,0,.12-.02.17-.02.06-.05.11-.09.15-.04.05-.09.08-.14.11-.06.03-.12.04-.18.05s-.12,0-.17-.02c-.06-.02-.11-.05-.15-.09-.05-.04-.08-.09-.11-.14-.03-.06-.04-.12-.05-.18,0-.06,0-.12.02-.17.02-.06.05-.11.09-.15s.09-.08.14-.11c.06-.03.12-.04.18-.05.06,0,.12,0,.17.02.06.02.11.05.15.09s.08.09.11.14Z"/><path class="cls-13" d="m41.74,53.96c-.16-.99.46-1.78,1.64-2.06h0c.16.99-.46,1.78-1.64,2.06,0,0,0,0,0,0Z"/><path class="cls-14" d="m42.29,54.69c1.12-.4,2.24-.14,2.94.69h0s0,0,0,0c-1.12.4-2.24.14-2.94-.69,0,0,0,0,0,0Z"/><path class="cls-18" d="m43.92,53.55c-.16-.94.42-1.7,1.54-1.97h0c.17.94-.42,1.7-1.54,1.97,0,0,0,0,0,0Z"/><path class="cls-16" d="m44.66,54.21c1.07-.39,2.13-.14,2.8.65h0,0c-1.07.39-2.13.14-2.8-.65,0,0,0,0,0,0Z"/><path class="cls-17" d="m46.04,53.07c-.22-.91.3-1.67,1.38-1.99h0c.22.91-.3,1.67-1.38,1.99,0,0,0,0,0,0Z"/><path class="cls-11" d="m46.63,53.79c.87-.59,1.95-.58,2.83.03h0c-.87.59-1.95.58-2.83-.03,0,0,0,0,0,0Z"/><path class="cls-12" d="m48.33,52.35c-.28-.85.15-1.59,1.14-1.95h0c.28.85-.15,1.59-1.14,1.95,0,0,0,0,0,0Z"/><path class="cls-31" d="m48.91,52.92c.74-.63,1.75-.72,2.66-.23h0c-.74.64-1.75.72-2.66.23,0,0,0,0,0,0Z"/><path class="cls-32" d="m50.51,51.5c-.38-.76-.08-1.49.77-1.9h0c.38.76.08,1.49-.77,1.9,0,0,0,0,0,0Z"/><path class="cls-30" d="m51.02,51.89c.57-.67,1.48-.86,2.39-.51h0c-.57.67-1.48.86-2.39.51,0,0,0,0,0,0Z"/><path class="cls-29" d="m52.1,50.42c-.37-.64-.17-1.27.53-1.67h0c.37.64.17,1.27-.53,1.67,0,0,0,0,0,0Z"/><path class="cls-19" d="m52.78,50.71c.43-.6,1.19-.82,2-.57h0c-.43.6-1.19.82-2,.57,0,0,0,0,0,0Z"/><path class="cls-25" d="m53.43,49.26c-.3-.56-.09-1.1.53-1.42h0c.3.56.1,1.1-.53,1.43,0,0,0,0,0,0Z"/><path class="cls-27" d="m54.06,49.51c.13-.59.67-.95,1.42-.94h0c-.13.59-.67.95-1.42.94h0Z"/><path class="cls-28" d="m54.67,48.11c-.21-.49,0-.94.56-1.18h0c.21.49,0,.94-.56,1.18,0,0,0,0,0,0Z"/><path class="cls-20" d="m54.45,48.48c-.11.15-.22.3-.34.45-.24.29-.5.56-.78.82-.56.52-1.19.98-1.85,1.39-.66.41-1.37.76-2.09,1.07-.73.31-1.48.57-2.24.8-.38.11-.77.22-1.16.31-.39.09-.78.18-1.17.26-.2.04-.39.07-.59.11-.2.03-.4.07-.59.1l-.3.05-.3.05-.3.06c-.05,0-.1.02-.15.03l-.15.03c-.4.09-.8.2-1.19.33-.39.14-.77.29-1.13.48-.04.02-.07.04-.1.06-.04-.02-.07-.04-.1-.06-.36-.19-.74-.35-1.13-.48-.39-.13-.78-.24-1.19-.33l-.15-.03c-.05-.01-.1-.02-.15-.03l-.3-.06-.3-.05-.3-.05c-.2-.03-.4-.06-.59-.1-.2-.04-.39-.07-.59-.11-.39-.08-.78-.16-1.17-.26-.39-.09-.77-.2-1.16-.31-.76-.23-1.51-.49-2.24-.8-.73-.31-1.43-.67-2.09-1.07-.66-.41-1.29-.87-1.85-1.39-.28-.26-.54-.53-.78-.82-.12-.14-.23-.29-.34-.45-.11-.15-.21-.31-.29-.47.08.17.17.33.27.48.1.16.21.31.33.46.23.3.49.58.76.85.55.54,1.16,1.02,1.82,1.45.66.43,1.36.81,2.08,1.14.72.33,1.48.62,2.24.87.38.13.77.24,1.16.34.39.11.78.2,1.18.29.2.05.4.09.6.13.2.04.4.08.6.11l.3.05.29.06.29.06s.1.02.14.03l.14.04c.38.1.76.21,1.12.35.33.13.65.27.95.44-.16.11-.31.22-.46.34-.16.13-.3.27-.44.42-.07.08-.13.15-.2.24l-.05.06-.04.06s-.03.04-.04.07c0,.01-.01.02-.02.04v.02s-.02.01-.02.02l.53.19s0,0,0,0h0s0-.03.01-.04c0-.02.02-.03.03-.05l.03-.05.04-.05c.05-.07.1-.14.16-.2.11-.13.24-.26.38-.38.17-.15.35-.28.54-.41.19.13.38.26.54.41.14.12.26.25.38.38.06.07.11.13.16.2l.04.05.03.05s.02.03.03.05c0,0,0,.02.01.02h0s0,.02,0,.02l.53-.19s0-.02-.01-.02v-.02s-.02-.02-.03-.04c-.01-.02-.03-.05-.04-.07l-.04-.06-.05-.06c-.06-.08-.13-.16-.2-.24-.14-.15-.29-.29-.44-.42-.15-.12-.3-.23-.46-.34.3-.17.62-.31.95-.44.36-.14.74-.25,1.12-.35l.14-.04s.1-.02.14-.03l.29-.06.29-.06.3-.05c.2-.04.4-.08.6-.11.2-.04.4-.08.6-.13.4-.09.79-.19,1.18-.29.39-.11.78-.22,1.16-.34.77-.25,1.52-.54,2.24-.87.72-.33,1.42-.71,2.08-1.14.66-.43,1.27-.91,1.82-1.45.27-.27.53-.55.76-.85.12-.15.23-.3.33-.46.1-.16.2-.32.27-.48-.08.16-.18.32-.29.47Z"/><path class="cls-26" d="m38.26,53.96c.16-.99-.46-1.78-1.64-2.06h0c-.16.99.46,1.78,1.64,2.06,0,0,0,0,0,0Z"/><path class="cls-22" d="m37.71,54.69c-1.12-.4-2.24-.14-2.94.69h0s0,0,0,0c1.12.4,2.24.14,2.94-.69,0,0,0,0,0,0Z"/><path class="cls-23" d="m36.08,53.55c.16-.94-.42-1.7-1.54-1.97h0c-.17.94.42,1.7,1.54,1.97,0,0,0,0,0,0Z"/><path class="cls-21" d="m35.34,54.21c-1.07-.39-2.13-.14-2.8.65h0,0c1.07.39,2.13.14,2.8-.65,0,0,0,0,0,0Z"/><path class="cls-24" d="m33.96,53.07c.22-.91-.3-1.67-1.38-1.99h0c-.22.91.3,1.67,1.38,1.99,0,0,0,0,0,0Z"/><path class="cls-34" d="m33.37,53.79c-.87-.59-1.95-.58-2.83.03h0c.87.59,1.95.58,2.83-.03,0,0,0,0,0,0Z"/><path class="cls-36" d="m31.67,52.35c.28-.85-.15-1.59-1.14-1.95h0c-.28.85.15,1.59,1.14,1.95,0,0,0,0,0,0Z"/><path class="cls-35" d="m31.09,52.92c-.74-.63-1.75-.72-2.66-.23h0c.74.64,1.75.72,2.66.23,0,0,0,0,0,0Z"/><path class="cls-33" d="m29.49,51.5c.38-.76.08-1.49-.77-1.9h0c-.38.76-.08,1.49.77,1.9,0,0,0,0,0,0Z"/><path class="cls-37" d="m28.98,51.89c-.57-.67-1.48-.86-2.39-.51h0c.57.67,1.48.86,2.39.51,0,0,0,0,0,0Z"/><path class="cls-38" d="m27.9,50.42c.37-.64.17-1.27-.53-1.67h0c-.37.64-.17,1.27.53,1.67,0,0,0,0,0,0Z"/><path class="cls-40" d="m27.22,50.71c-.43-.6-1.19-.82-2-.57h0c.43.6,1.19.82,2,.57,0,0,0,0,0,0Z"/><path class="cls-42" d="m26.57,49.26c.3-.56.09-1.1-.53-1.42h0c-.3.56-.1,1.1.53,1.43,0,0,0,0,0,0Z"/><path class="cls-41" d="m25.94,49.51c-.13-.59-.67-.95-1.42-.94h0c.13.59.67.95,1.42.94h0Z"/><path class="cls-39" d="m25.33,48.11c.21-.49,0-.94-.56-1.18h0c-.21.49,0,.94.56,1.18,0,0,0,0,0,0Z"/><path class="cls-10" d="m27.2,40.85v.16s-.03.22-.06.58c-.03.27-.04.48-.04.63,0,.18,0,.34,0,.46,0,.04,0,.1,0,.16,0,.07-.02.1-.05.1s-.07-.03-.1-.09c-.14-.22-.29-.36-.45-.43-.47.39-.98.59-1.53.59-.83,0-1.56-.3-2.19-.9-.67-.64-1.01-1.44-1.01-2.41s.3-1.72.91-2.35c.6-.63,1.36-.94,2.26-.94.42,0,.79.09,1.12.28.19.1.33.16.42.16.13,0,.26-.06.37-.18.08-.09.13-.13.15-.13.03,0,.04.02.04.06,0,.02,0,.05,0,.08-.04.21-.06.47-.06.77,0,.03,0,.16,0,.38v.64c0,.11-.03.17-.09.17-.05,0-.1-.12-.15-.36-.23-1.11-.75-1.66-1.57-1.66-.65,0-1.11.41-1.41,1.22-.2.55-.3,1.22-.3,1.99,0,1.15.24,1.99.72,2.52.25.28.59.42,1,.42.89,0,1.48-.58,1.76-1.73.04-.19.09-.29.15-.29.06,0,.09.04.09.12Z"/><path class="cls-10" d="m34.9,42.86s-.03.06-.09.06c-.04,0-.09,0-.12,0-.22-.03-.84-.04-1.86-.04h-.73c-.2,0-.29-.02-.29-.08,0-.05.08-.08.24-.09.14,0,.26-.03.37-.08.1-.05.16-.1.16-.16,0-.04.01-.14.02-.3v-2.59h-2.26v2.85c0,.16.13.25.38.29.2.02.31.04.34.05.03,0,.05.03.05.06,0,.04-.03.06-.09.06-.08,0-.3,0-.66-.02s-.5-.02-.45-.02c-.04,0-.23,0-.58.02-.35.01-.69.02-1,.02h-.09c-.11,0-.17-.03-.17-.08,0-.05.04-.07.13-.07.3,0,.5-.04.62-.11.05-.03.08-.19.08-.49v-5.08c0-.2-.06-.31-.17-.35-.11-.04-.29-.06-.53-.06-.08,0-.13-.02-.13-.07,0-.03.03-.05.1-.05-.03,0,.21,0,.71,0h2.1c.09,0,.13.03.13.09,0,.04-.02.07-.05.08-.03,0-.14.02-.32.02-.18,0-.29.04-.33.12s-.06.2-.06.38v2.17h.23c.62.02,1.3.02,2.03-.02v-2.06c0-.42-.16-.63-.47-.63-.21,0-.31-.03-.31-.08,0-.05.04-.07.12-.07h2.88c.06,0,.09.02.09.05,0,.04-.12.07-.35.09-.23.02-.38.07-.44.14-.06.08-.09.27-.09.57v4.52c0,.4.05.64.16.72.1.08.28.13.54.14.12,0,.18.04.18.11Z"/><path class="cls-10" d="m41.81,39.69c0,.92-.3,1.7-.89,2.33-.59.64-1.32.95-2.18.95s-1.56-.32-2.16-.97c-.6-.64-.9-1.42-.9-2.33s.3-1.71.9-2.34c.6-.63,1.34-.94,2.23-.94s1.57.31,2.15.94.86,1.41.86,2.34Zm-1.67.14c0-1.22-.15-2.12-.45-2.7-.2-.38-.51-.57-.93-.57s-.77.27-1.03.8c-.26.53-.38,1.25-.38,2.14,0,1.3.23,2.27.68,2.92.19.27.47.4.83.4.42,0,.71-.19.88-.58.27-.6.4-1.4.4-2.41Z"/><path class="cls-10" d="m45.7,42.79c0,.05-.04.08-.12.08-.04,0-.09,0-.12,0-.38-.02-.71-.03-.98-.03s-.7,0-1.25.03c-.18,0-.32,0-.41,0-.09,0-.14-.03-.14-.08,0-.03.02-.05.05-.06.03,0,.16-.01.37-.02.2-.04.31-.09.34-.17.03-.08.05-.32.05-.74v-4.77c0-.11,0-.16,0-.16,0-.15-.16-.23-.47-.23-.18,0-.27-.02-.27-.06s.01-.07.04-.07c.03,0,.11,0,.25,0-.06,0,.05,0,.34,0h2.15c.08,0,.12.02.12.07,0,.03-.01.06-.04.06-.03,0-.12.02-.29.02-.2.01-.32.05-.36.12l-.03.17v5.19c0,.26.03.42.09.47.06.05.26.08.61.1.06,0,.09.03.09.08Z"/><path class="cls-10" d="m51.97,40.85v.16s-.03.22-.06.58c-.03.27-.04.48-.04.63,0,.18,0,.34,0,.46,0,.04,0,.1,0,.16,0,.07-.02.1-.05.1s-.07-.03-.1-.09c-.14-.22-.29-.36-.45-.43-.47.39-.98.59-1.53.59-.83,0-1.56-.3-2.19-.9-.67-.64-1.01-1.44-1.01-2.41s.3-1.72.91-2.35c.6-.63,1.36-.94,2.26-.94.42,0,.79.09,1.12.28.19.1.33.16.42.16.13,0,.26-.06.37-.18.08-.09.13-.13.15-.13.03,0,.04.02.04.06,0,.02,0,.05,0,.08-.04.21-.06.47-.06.77,0,.03,0,.16,0,.38v.64c0,.11-.03.17-.09.17-.05,0-.1-.12-.15-.36-.23-1.11-.75-1.66-1.57-1.66-.65,0-1.11.41-1.41,1.22-.2.55-.3,1.22-.3,1.99,0,1.15.24,1.99.72,2.52.25.28.59.42,1,.42.89,0,1.48-.58,1.76-1.73.04-.19.09-.29.15-.29.06,0,.09.04.09.12Z"/><path class="cls-10" d="m58.2,41.25s0,.3,0,.86c0,.29-.01.51-.01.64s0,.19,0,.18c-1.67-.07-3.13-.1-4.39-.06h-.8c-.11,0-.17-.02-.17-.07,0-.03.01-.05.04-.06.03,0,.12-.01.29-.03.3-.02.46-.1.48-.25.01-.08.02-.17.02-.27v-4.66c0-.37,0-.57,0-.61,0-.1-.04-.17-.09-.2-.06-.04-.17-.06-.35-.06-.2,0-.29-.03-.29-.08,0-.06.09-.09.26-.09s.42,0,.73,0c1.16-.02,2.12-.03,2.86-.02h.65c.14,0,.31,0,.51-.03l.09,1c.03.32.05.52.05.59,0,.06-.03.09-.1.09s-.1-.08-.12-.24c-.06-.42-.23-.73-.53-.93s-.73-.29-1.31-.29c-.18,0-.48,0-.91.03v2.72c.7,0,1.14-.04,1.32-.14.18-.1.3-.36.37-.79.03-.23.08-.34.14-.34.06,0,.09.06.09.17s0,.34-.03.68c0,.12,0,.27,0,.47,0,.53,0,.93.02,1.2,0,.04,0,.08,0,.14,0,.07-.03.11-.09.11-.04,0-.07-.01-.09-.04-.01-.03-.03-.13-.06-.3-.06-.44-.15-.71-.26-.82-.11-.11-.37-.16-.77-.16h-.65v3.09h.61c.7-.01,1.12-.03,1.28-.05.19-.02.37-.09.55-.2.16-.12.27-.25.33-.4.06-.14.13-.4.2-.78.02-.09.05-.14.1-.14.05,0,.08.05.08.14Z"/><g class="cls-4"><rect class="cls-9" x="25.83" y="16.89" width="38.69" height="7.47"/></g><g class="cls-2"><rect class="cls-10" x="39.37" y="16.89" width="14.81" height="7.48"/></g><path class="cls-10" d="m32.99,32.01s0,.3,0,.86c0,.3-.01.51-.01.64,0,.13,0,.19,0,.19-1.63-.07-3.06-.1-4.28-.07h-.78c-.11,0-.17-.02-.17-.07,0-.03.01-.06.04-.06.03,0,.12-.01.28-.03.29-.02.45-.1.47-.25.01-.08.02-.17.02-.27v-4.69c0-.37,0-.57,0-.61,0-.1-.04-.17-.09-.2-.06-.04-.17-.06-.34-.06-.19,0-.29-.03-.29-.08,0-.06.08-.09.26-.09s.41,0,.71,0c1.14-.02,2.07-.03,2.79-.02h.63c.14,0,.3,0,.5-.03l.08,1.01c.03.32.05.52.05.59,0,.06-.03.09-.09.09s-.1-.08-.12-.24c-.06-.43-.23-.74-.52-.93s-.71-.29-1.28-.29c-.17,0-.47,0-.89.03v2.73c.68,0,1.11-.04,1.29-.14.18-.1.3-.37.36-.79.03-.23.08-.34.14-.34.06,0,.08.06.08.17s0,.34-.03.68c0,.12,0,.27,0,.47,0,.53,0,.93.02,1.2,0,.04,0,.08,0,.14,0,.07-.03.11-.08.11-.04,0-.07-.01-.08-.04-.01-.03-.03-.13-.06-.3-.06-.44-.15-.71-.26-.82s-.36-.16-.75-.16h-.63v3.11h.59c.68-.01,1.1-.03,1.24-.05.19-.02.36-.09.54-.2.15-.12.26-.26.32-.4.06-.14.12-.4.19-.79.02-.09.05-.14.09-.14.05,0,.07.05.07.14Z"/><path class="cls-10" d="m38.37,32.07c0,.12,0,.22,0,.3-.02.27-.03.49-.03.66v.66c-.78-.03-2.21-.05-4.28-.05h-.39c-.27,0-.41-.03-.41-.08s.04-.08.13-.08c.31,0,.51-.05.59-.13.06-.05.08-.2.08-.44v-5.01c0-.21-.02-.34-.06-.39-.08-.09-.19-.14-.35-.13h-.23c-.07,0-.1-.02-.1-.07s.04-.07.13-.07h2.6c.06,0,.09.02.09.07,0,.06-.08.08-.24.08-.23,0-.36.03-.4.08-.04.06-.06.3-.06.73v2.2c0,.45.01,1.46.04,3.03.12,0,.25,0,.4,0,.65,0,1.1-.02,1.34-.07.39-.08.65-.28.8-.59.07-.16.14-.42.2-.77.02-.1.05-.15.08-.15.04,0,.07.07.07.2Z"/><path class="cls-10" d="m41.45,33.56c0,.05-.04.08-.12.08-.04,0-.08,0-.12,0-.37-.02-.69-.03-.95-.03s-.68,0-1.22.03c-.18,0-.31,0-.4,0-.09,0-.14-.03-.14-.08,0-.03.02-.05.05-.06s.15-.01.36-.02c.19-.04.3-.09.33-.17.03-.08.05-.33.05-.75v-4.8c0-.11,0-.16,0-.16,0-.15-.15-.23-.46-.23-.17,0-.26-.02-.26-.06s.01-.07.04-.07.11,0,.24,0c-.06,0,.05,0,.33,0h2.1c.08,0,.12.02.12.07,0,.03-.01.06-.04.07-.03,0-.12.02-.28.02-.19.01-.31.05-.35.12l-.03.18v5.22c0,.26.03.42.09.47.06.05.26.08.6.1.06,0,.08.03.08.08Z"/><path class="cls-10" d="m47.02,28.95s-.02.07-.07.07c-.07,0-.13-.12-.19-.36-.11-.47-.26-.79-.46-.96-.2-.17-.51-.26-.94-.26h-.44v5.63c0,.15.05.25.13.3.08.04.3.08.65.11.07,0,.1.03.1.08,0,.06-.05.09-.15.09-.02,0-.07,0-.14,0-.09,0-.17,0-.23,0l-.95-.03-1.57.05c-.09,0-.13-.02-.13-.07,0-.04.01-.06.04-.07.02,0,.13-.01.31-.02.34-.01.52-.09.55-.24.01-.08.02-.71.02-1.89v-3.93h-.24c-.49,0-.85.09-1.08.27-.23.18-.37.5-.44.96-.04.27-.1.4-.17.4-.06,0-.08-.04-.08-.11,0-.05.01-.22.04-.51.05-.6.08-1.02.09-1.24h.82s.23,0,.64.01c.41,0,.93.01,1.57.01.35,0,.67,0,.95,0,.28,0,.53,0,.76,0,.2,0,.36,0,.46-.01.02.4.07.91.14,1.53.01.1.02.17.02.19Z"/><path class="cls-10" d="m52.26,32.01s0,.3,0,.86c0,.3-.01.51-.01.64,0,.13,0,.19,0,.19-1.63-.07-3.06-.1-4.28-.07h-.78c-.11,0-.17-.02-.17-.07,0-.03.01-.06.04-.06.03,0,.12-.01.28-.03.29-.02.45-.1.47-.25.01-.08.02-.17.02-.27v-4.69c0-.37,0-.57,0-.61,0-.1-.04-.17-.09-.2-.06-.04-.17-.06-.34-.06-.19,0-.29-.03-.29-.08,0-.06.08-.09.26-.09s.41,0,.71,0c1.14-.02,2.07-.03,2.79-.02h.63c.14,0,.3,0,.5-.03l.08,1.01c.03.32.05.52.05.59,0,.06-.03.09-.09.09s-.1-.08-.12-.24c-.06-.43-.23-.74-.52-.93s-.71-.29-1.28-.29c-.17,0-.47,0-.89.03v2.73c.68,0,1.11-.04,1.29-.14.18-.1.3-.37.36-.79.03-.23.08-.34.14-.34.06,0,.08.06.08.17s0,.34-.03.68c0,.12,0,.27,0,.47,0,.53,0,.93.02,1.2,0,.04,0,.08,0,.14,0,.07-.03.11-.08.11-.04,0-.07-.01-.08-.04-.01-.03-.03-.13-.06-.3-.06-.44-.15-.71-.26-.82s-.36-.16-.75-.16h-.63v3.11h.59c.68-.01,1.1-.03,1.24-.05.19-.02.36-.09.54-.2.15-.12.26-.26.32-.4.06-.14.12-.4.19-.79.02-.09.05-.14.09-.14.05,0,.07.05.07.14Z"/></svg>