<?xml version="1.0" encoding="UTF-8"?><svg id="Layer_5" xmlns="http://www.w3.org/2000/svg" xmlns:xlink="http://www.w3.org/1999/xlink" viewBox="0 0 80 80"><defs><style>.cls-1{fill:url(#linear-gradient);}.cls-2{fill:none;stroke:#b1e3fa;stroke-miterlimit:10;stroke-width:.1px;}.cls-3{fill:#004d6d;}.cls-4,.cls-5{fill:#030303;}.cls-6{fill:#fff;}.cls-7{fill:#14a2dc;}.cls-8{fill:#231f20;}.cls-9,.cls-10{fill:#08486c;}.cls-11{fill:url(#linear-gradient-8);}.cls-12{fill:url(#linear-gradient-9);}.cls-13{fill:url(#linear-gradient-3);}.cls-14{fill:url(#linear-gradient-4);}.cls-15{fill:url(#linear-gradient-2);}.cls-16{fill:url(#linear-gradient-6);}.cls-17{fill:url(#linear-gradient-7);}.cls-18{fill:url(#linear-gradient-5);}.cls-10,.cls-5{fill-rule:evenodd;}.cls-19{fill:url(#linear-gradient-14);}.cls-20{fill:url(#linear-gradient-18);}.cls-21{fill:url(#linear-gradient-22);}.cls-22{fill:url(#linear-gradient-20);}.cls-23{fill:url(#linear-gradient-21);}.cls-24{fill:url(#linear-gradient-23);}.cls-25{fill:url(#linear-gradient-15);}.cls-26{fill:url(#linear-gradient-19);}.cls-27{fill:url(#linear-gradient-16);}.cls-28{fill:url(#linear-gradient-17);}.cls-29{fill:url(#linear-gradient-13);}.cls-30{fill:url(#linear-gradient-12);}.cls-31{fill:url(#linear-gradient-10);}.cls-32{fill:url(#linear-gradient-11);}.cls-33{fill:url(#linear-gradient-27);}.cls-34{fill:url(#linear-gradient-24);}.cls-35{fill:url(#linear-gradient-26);}.cls-36{fill:url(#linear-gradient-25);}.cls-37{fill:url(#linear-gradient-28);}.cls-38{fill:url(#linear-gradient-29);}.cls-39{fill:url(#linear-gradient-33);}.cls-40{fill:url(#linear-gradient-30);}.cls-41{fill:url(#linear-gradient-32);}.cls-42{fill:url(#linear-gradient-31);}</style><linearGradient id="linear-gradient" x1="39.56" y1="18.32" x2="40.56" y2="79.06" gradientUnits="userSpaceOnUse"><stop offset="0" stop-color="#034d79"/><stop offset=".03" stop-color="#075889"/><stop offset=".08" stop-color="#0d679f"/><stop offset=".14" stop-color="#1173b0"/><stop offset=".21" stop-color="#147bbc"/><stop offset=".31" stop-color="#1680c3"/><stop offset=".59" stop-color="#1782c5"/><stop offset=".71" stop-color="#1680c2"/><stop offset=".78" stop-color="#1479b9"/><stop offset=".84" stop-color="#116faa"/><stop offset=".9" stop-color="#0d6095"/><stop offset=".95" stop-color="#074c7a"/><stop offset="1" stop-color="#003559"/><stop offset="1" stop-color="#003458"/></linearGradient><linearGradient id="linear-gradient-2" x1="40" y1="64.94" x2="40" y2="-.04" gradientUnits="userSpaceOnUse"><stop offset="0" stop-color="#00a3e0"/><stop offset="1" stop-color="#006084"/></linearGradient><linearGradient id="linear-gradient-3" x1="41.65" y1="53.14" x2="43.34" y2="53.14" xlink:href="#linear-gradient-2"/><linearGradient id="linear-gradient-4" x1="42.22" y1="55.25" x2="45.16" y2="55.25" xlink:href="#linear-gradient-2"/><linearGradient id="linear-gradient-5" x1="43.82" y1="52.77" x2="45.42" y2="52.77" xlink:href="#linear-gradient-2"/><linearGradient id="linear-gradient-6" x1="44.59" y1="54.74" x2="47.4" y2="54.74" xlink:href="#linear-gradient-2"/><linearGradient id="linear-gradient-7" x1="45.93" y1="52.29" x2="47.4" y2="52.29" xlink:href="#linear-gradient-2"/><linearGradient id="linear-gradient-8" x1="46.57" y1="54.01" x2="49.4" y2="54.01" xlink:href="#linear-gradient-2"/><linearGradient id="linear-gradient-9" x1="48.18" y1="51.59" x2="49.48" y2="51.59" xlink:href="#linear-gradient-2"/><linearGradient id="linear-gradient-10" x1="48.84" y1="53.01" x2="51.49" y2="53.01" xlink:href="#linear-gradient-2"/><linearGradient id="linear-gradient-11" x1="50.28" y1="50.76" x2="51.38" y2="50.76" xlink:href="#linear-gradient-2"/><linearGradient id="linear-gradient-12" x1="50.95" y1="51.84" x2="53.35" y2="51.84" xlink:href="#linear-gradient-2"/><linearGradient id="linear-gradient-13" x1="51.84" y1="49.79" x2="52.75" y2="49.79" xlink:href="#linear-gradient-2"/><linearGradient id="linear-gradient-14" x1="52.71" y1="50.63" x2="54.71" y2="50.63" xlink:href="#linear-gradient-2"/><linearGradient id="linear-gradient-15" x1="53.23" y1="48.75" x2="54.03" y2="48.75" xlink:href="#linear-gradient-2"/><linearGradient id="linear-gradient-16" x1="53.99" y1="49.24" x2="55.41" y2="49.24" xlink:href="#linear-gradient-2"/><linearGradient id="linear-gradient-17" x1="54.52" y1="47.73" x2="55.24" y2="47.73" xlink:href="#linear-gradient-2"/><linearGradient id="linear-gradient-18" x1="25.19" y1="52.51" x2="54.67" y2="52.51" xlink:href="#linear-gradient-2"/><linearGradient id="linear-gradient-19" x1="36.53" y1="53.14" x2="38.22" y2="53.14" xlink:href="#linear-gradient-2"/><linearGradient id="linear-gradient-20" x1="34.7" y1="55.25" x2="37.64" y2="55.25" xlink:href="#linear-gradient-2"/><linearGradient id="linear-gradient-21" x1="34.45" y1="52.77" x2="36.04" y2="52.77" xlink:href="#linear-gradient-2"/><linearGradient id="linear-gradient-22" x1="32.47" y1="54.74" x2="35.27" y2="54.74" xlink:href="#linear-gradient-2"/><linearGradient id="linear-gradient-23" x1="32.46" y1="52.29" x2="33.94" y2="52.29" xlink:href="#linear-gradient-2"/><linearGradient id="linear-gradient-24" x1="30.47" y1="54.01" x2="33.3" y2="54.01" xlink:href="#linear-gradient-2"/><linearGradient id="linear-gradient-25" x1="30.38" y1="51.59" x2="31.69" y2="51.59" xlink:href="#linear-gradient-2"/><linearGradient id="linear-gradient-26" x1="28.37" y1="53.01" x2="31.03" y2="53.01" xlink:href="#linear-gradient-2"/><linearGradient id="linear-gradient-27" x1="28.49" y1="50.76" x2="29.58" y2="50.76" xlink:href="#linear-gradient-2"/><linearGradient id="linear-gradient-28" x1="26.52" y1="51.84" x2="28.91" y2="51.84" xlink:href="#linear-gradient-2"/><linearGradient id="linear-gradient-29" x1="27.12" y1="49.79" x2="28.02" y2="49.79" xlink:href="#linear-gradient-2"/><linearGradient id="linear-gradient-30" x1="25.15" y1="50.63" x2="27.15" y2="50.63" xlink:href="#linear-gradient-2"/><linearGradient id="linear-gradient-31" x1="25.84" y1="48.75" x2="26.63" y2="48.75" xlink:href="#linear-gradient-2"/><linearGradient id="linear-gradient-32" x1="24.46" y1="49.24" x2="25.87" y2="49.24" xlink:href="#linear-gradient-2"/><linearGradient id="linear-gradient-33" x1="24.63" y1="47.73" x2="25.34" y2="47.73" xlink:href="#linear-gradient-2"/></defs><path class="cls-1" d="m40,79.95c-1.54,0-2.99-.22-4.07-.63l-15.62-5.84c-2.25-.84-4.09-3.48-4.09-5.89V22.74c0-2.41,1.96-4.38,4.38-4.38h38.8c2.41,0,4.38,1.96,4.38,4.38v44.85c0,2.41-1.83,5.05-4.09,5.89l-15.62,5.84c-1.08.41-2.53.63-4.07.63Z"/><path class="cls-3" d="m59.4,18.41c2.38,0,4.33,1.95,4.33,4.33v44.85c0,2.38-1.82,5.01-4.05,5.84l-15.62,5.84c-1.11.42-2.58.62-4.05.62s-2.94-.21-4.05-.62l-15.62-5.84c-2.23-.83-4.05-3.46-4.05-5.84V22.74c0-2.38,1.95-4.33,4.33-4.33h38.8m0-.1H20.6c-2.44,0-4.43,1.99-4.43,4.43v44.85c0,2.43,1.85,5.09,4.12,5.94l15.62,5.84c1.09.41,2.54.63,4.09.63s3-.22,4.09-.63l15.62-5.84c2.27-.85,4.12-3.51,4.12-5.94V22.74c0-2.44-1.99-4.43-4.43-4.43h0Z"/><path class="cls-2" d="m62.9,67.65c0,1.96-1.5,4.14-3.34,4.83l-16.22,6.11c-1.84.69-4.84.69-6.68,0l-16.22-6.11c-1.84-.69-3.34-2.86-3.34-4.83V22.92c0-1.96,1.61-3.57,3.57-3.57h38.66c1.96,0,3.57,1.61,3.57,3.57v44.73Z"/><circle class="cls-6" cx="40" cy="32.45" r="31.81"/><path class="cls-15" d="m40,64.62c-17.82,0-32.31-14.49-32.31-32.31S22.18,0,40,0s32.31,14.49,32.31,32.31-14.49,32.31-32.31,32.31Zm0-63.34c-17.11,0-31.03,13.92-31.03,31.03s13.92,31.03,31.03,31.03,31.03-13.92,31.03-31.03S57.11,1.28,40,1.28Z"/><path class="cls-7" d="m40,61.78c-16.25,0-29.48-13.22-29.48-29.48S23.75,2.83,40,2.83s29.48,13.22,29.48,29.48-13.22,29.48-29.48,29.48Zm0-58.63c-16.08,0-29.16,13.08-29.16,29.16s13.08,29.16,29.16,29.16,29.16-13.08,29.16-29.16S56.08,3.15,40,3.15Z"/><path class="cls-7" d="m50.97,13.12c-.03.06-.07.1-.11.14-.05.04-.1.07-.15.09s-.11.03-.17.02c-.06,0-.12-.02-.18-.05-.06-.03-.1-.07-.14-.11-.04-.05-.07-.1-.09-.15-.02-.06-.03-.11-.02-.17,0-.06.02-.12.05-.18.03-.06.07-.1.11-.14.05-.04.1-.07.15-.09s.11-.03.17-.02c.06,0,.12.02.18.05.06.03.1.07.14.11.04.05.07.1.09.15.02.06.03.11.02.17,0,.06-.02.12-.05.18Z"/><path class="cls-7" d="m48.99,12.19c-.02.06-.06.11-.1.15-.04.04-.09.08-.14.1s-.11.04-.17.04c-.06,0-.12,0-.18-.03-.06-.02-.11-.06-.15-.1s-.08-.09-.1-.14c-.02-.05-.04-.11-.04-.17,0-.06,0-.12.03-.18.02-.06.06-.11.1-.15.04-.04.09-.08.14-.1s.11-.04.17-.04.12,0,.18.03c.06.02.11.06.15.1s.08.09.1.14c.02.05.04.11.04.17,0,.06,0,.12-.03.18Z"/><path class="cls-7" d="m46.93,11.46c-.02.06-.05.12-.08.16-.04.05-.08.08-.13.11s-.11.05-.17.05c-.06,0-.12,0-.18-.01s-.12-.05-.16-.08c-.05-.04-.08-.08-.11-.13-.03-.05-.05-.11-.05-.17,0-.06,0-.12.01-.18.02-.06.05-.12.08-.16.04-.05.08-.08.13-.11.05-.03.11-.05.17-.05.06,0,.12,0,.18.01.06.02.12.05.16.08.05.04.08.08.11.13.03.05.05.11.05.17,0,.06,0,.12-.01.18Z"/><path class="cls-7" d="m44.8,10.91c-.01.06-.03.12-.07.17-.03.05-.07.09-.12.12s-.1.06-.16.07-.12.01-.18,0c-.06-.01-.12-.03-.17-.07-.05-.03-.09-.07-.12-.12-.03-.05-.06-.1-.07-.16-.01-.06-.01-.12,0-.18s.03-.12.07-.17c.03-.05.07-.09.12-.12.05-.03.1-.06.16-.07s.12-.01.18,0c.06.01.12.03.17.07.05.03.09.07.12.12s.06.1.07.16c.01.06.01.12,0,.18Z"/><path class="cls-7" d="m42.64,10.57c0,.06-.02.12-.05.17s-.07.1-.11.14c-.05.04-.1.07-.15.08-.06.02-.12.03-.18.02-.06,0-.12-.02-.17-.05-.05-.03-.1-.07-.13-.11-.04-.05-.07-.1-.08-.15-.02-.06-.03-.12-.02-.18s.02-.12.05-.17c.03-.05.07-.1.11-.14.05-.04.1-.07.15-.08.06-.02.12-.03.18-.02.06,0,.12.02.17.05.05.03.1.07.14.11.04.05.07.1.08.15.02.06.03.12.02.18Z"/><path class="cls-7" d="m40.4,10.43c0,.06-.01.12-.04.18-.02.05-.06.1-.1.14-.04.04-.09.07-.15.1s-.12.03-.18.03c-.06,0-.12-.01-.18-.04-.05-.03-.1-.06-.14-.1-.04-.04-.07-.09-.1-.15s-.03-.12-.03-.18c0-.06.01-.12.04-.18.02-.05.06-.1.1-.14s.09-.07.15-.1c.06-.02.12-.03.18-.03.06,0,.12.01.18.04.05.02.1.06.14.1s.07.09.1.15.03.12.03.18Z"/><path class="cls-7" d="m38.27,10.48c0,.06,0,.12-.02.18-.02.06-.05.11-.08.15-.04.04-.08.08-.14.11s-.11.05-.17.05c-.06,0-.12,0-.18-.02-.06-.02-.11-.05-.15-.08-.04-.04-.08-.08-.11-.14-.03-.05-.05-.11-.05-.17,0-.06,0-.12.02-.18s.05-.11.08-.15.08-.08.14-.11c.05-.03.11-.05.17-.05.06,0,.12,0,.18.02.06.02.11.05.15.08s.08.08.11.14.05.11.05.17Z"/><path class="cls-7" d="m36.1,10.74c.01.06.01.12,0,.18s-.04.11-.07.16c-.03.05-.07.09-.12.12-.05.03-.11.06-.17.07-.06.01-.12.01-.18,0-.06-.01-.11-.04-.16-.07-.05-.03-.09-.07-.12-.12-.03-.05-.06-.11-.07-.17-.01-.06-.01-.12,0-.18s.04-.11.07-.16c.03-.05.07-.09.12-.12.05-.03.11-.06.17-.07.06-.01.12-.01.18,0s.11.04.16.07c.05.03.09.07.12.12.03.05.06.11.07.17Z"/><path class="cls-7" d="m33.95,11.19c.02.06.02.12.01.18,0,.06-.03.11-.06.17-.03.05-.07.1-.11.13-.05.04-.1.07-.16.08-.06.02-.12.02-.18.01-.06,0-.11-.03-.17-.06-.05-.03-.1-.07-.13-.11-.04-.05-.07-.1-.08-.16-.02-.06-.02-.12-.01-.18,0-.06.03-.11.06-.17.03-.05.07-.1.11-.13s.1-.07.16-.08c.06-.02.12-.02.18-.01.06,0,.11.03.17.06s.1.07.13.11c.04.05.07.1.08.16Z"/><path class="cls-7" d="m31.86,11.85c.02.06.03.12.03.18,0,.06-.02.12-.04.17-.02.05-.06.1-.1.14s-.09.08-.15.1c-.06.02-.12.03-.18.03-.06,0-.12-.02-.17-.04s-.1-.06-.14-.1c-.04-.04-.07-.09-.1-.15s-.03-.12-.03-.18c0-.06.02-.12.04-.17.02-.05.06-.1.1-.14.04-.04.09-.08.15-.1s.12-.03.18-.03c.06,0,.12.02.17.04s.1.06.14.1c.04.04.07.09.1.15Z"/><path class="cls-7" d="m29.85,12.69c.03.06.04.12.05.18,0,.06,0,.12-.02.17-.02.06-.05.11-.09.15-.04.05-.09.08-.14.11-.06.03-.12.04-.18.05s-.12,0-.17-.02c-.06-.02-.11-.05-.15-.09-.05-.04-.08-.09-.11-.14-.03-.06-.04-.12-.05-.18,0-.06,0-.12.02-.17.02-.06.05-.11.09-.15s.09-.08.14-.11c.06-.03.12-.04.18-.05.06,0,.12,0,.17.02.06.02.11.05.15.09s.08.09.11.14Z"/><path class="cls-13" d="m41.67,54.16c-.16-.99.46-1.78,1.64-2.06h0c.16.99-.46,1.78-1.64,2.06,0,0,0,0,0,0Z"/><path class="cls-14" d="m42.22,54.9c1.12-.4,2.24-.14,2.94.69h0s0,0,0,0c-1.12.4-2.24.14-2.94-.69,0,0,0,0,0,0Z"/><path class="cls-18" d="m43.85,53.76c-.16-.94.42-1.7,1.54-1.97h0c.17.94-.42,1.7-1.54,1.97,0,0,0,0,0,0Z"/><path class="cls-16" d="m44.59,54.42c1.07-.39,2.13-.14,2.8.65h0,0c-1.07.39-2.13.14-2.8-.65,0,0,0,0,0,0Z"/><path class="cls-17" d="m45.97,53.28c-.22-.91.3-1.67,1.38-1.99h0c.22.91-.3,1.67-1.38,1.99,0,0,0,0,0,0Z"/><path class="cls-11" d="m46.57,53.99c.87-.59,1.95-.58,2.83.03h0c-.87.59-1.95.58-2.83-.03,0,0,0,0,0,0Z"/><path class="cls-12" d="m48.26,52.56c-.28-.85.15-1.59,1.14-1.95h0c.28.85-.15,1.59-1.14,1.95,0,0,0,0,0,0Z"/><path class="cls-31" d="m48.84,53.12c.74-.63,1.75-.72,2.66-.23h0c-.74.64-1.75.72-2.66.23,0,0,0,0,0,0Z"/><path class="cls-32" d="m50.44,51.71c-.38-.76-.08-1.49.77-1.9h0c.38.76.08,1.49-.77,1.9,0,0,0,0,0,0Z"/><path class="cls-30" d="m50.95,52.1c.57-.67,1.48-.86,2.39-.51h0c-.57.67-1.48.86-2.39.51,0,0,0,0,0,0Z"/><path class="cls-29" d="m52.03,50.63c-.37-.64-.17-1.27.53-1.67h0c.37.64.17,1.27-.53,1.67,0,0,0,0,0,0Z"/><path class="cls-19" d="m52.71,50.92c.43-.6,1.19-.82,2-.57h0c-.43.6-1.19.82-2,.57,0,0,0,0,0,0Z"/><path class="cls-25" d="m53.36,49.46c-.3-.56-.09-1.1.53-1.42h0c.3.56.1,1.1-.53,1.43,0,0,0,0,0,0Z"/><path class="cls-27" d="m53.99,49.71c.13-.59.67-.95,1.42-.94h0c-.13.59-.67.95-1.42.94h0Z"/><path class="cls-28" d="m54.6,48.32c-.21-.49,0-.94.56-1.18h0c.21.49,0,.94-.56,1.18,0,0,0,0,0,0Z"/><path class="cls-20" d="m54.38,48.68c-.11.15-.22.3-.34.45-.24.29-.5.56-.78.82-.56.52-1.19.98-1.85,1.39-.66.41-1.37.76-2.09,1.07-.73.31-1.48.57-2.24.8-.38.11-.77.22-1.16.31-.39.09-.78.18-1.17.26-.2.04-.39.07-.59.11-.2.03-.4.07-.59.1l-.3.05-.3.05-.3.06c-.05,0-.1.02-.15.03l-.15.03c-.4.09-.8.2-1.19.33-.39.14-.77.29-1.13.48-.04.02-.07.04-.1.06-.04-.02-.07-.04-.1-.06-.36-.19-.74-.35-1.13-.48-.39-.13-.78-.24-1.19-.33l-.15-.03c-.05-.01-.1-.02-.15-.03l-.3-.06-.3-.05-.3-.05c-.2-.03-.4-.06-.59-.1-.2-.04-.39-.07-.59-.11-.39-.08-.78-.16-1.17-.26-.39-.09-.77-.2-1.16-.31-.76-.23-1.51-.49-2.24-.8-.73-.31-1.43-.67-2.09-1.07-.66-.41-1.29-.87-1.85-1.39-.28-.26-.54-.53-.78-.82-.12-.14-.23-.29-.34-.45-.11-.15-.21-.31-.29-.47.08.17.17.33.27.48.1.16.21.31.33.46.23.3.49.58.76.85.55.54,1.16,1.02,1.82,1.45.66.43,1.36.81,2.08,1.14.72.33,1.48.62,2.24.87.38.13.77.24,1.16.34.39.11.78.2,1.18.29.2.05.4.09.6.13.2.04.4.08.6.11l.3.05.29.06.29.06s.1.02.14.03l.14.04c.38.1.76.21,1.12.35.33.13.65.27.95.44-.16.11-.31.22-.46.34-.16.13-.3.27-.44.42-.07.08-.13.15-.2.24l-.05.06-.04.06s-.03.04-.04.07c0,.01-.01.02-.02.04v.02s-.02.01-.02.02l.53.19s0,0,0,0h0s0-.03.01-.04c0-.02.02-.03.03-.05l.03-.05.04-.05c.05-.07.1-.14.16-.2.11-.13.24-.26.38-.38.17-.15.35-.28.54-.41.19.13.38.26.54.41.14.12.26.25.38.38.06.07.11.13.16.2l.04.05.03.05s.02.03.03.05c0,0,0,.02.01.02h0s0,.02,0,.02l.53-.19s0-.02-.01-.02v-.02s-.02-.02-.03-.04c-.01-.02-.03-.05-.04-.07l-.04-.06-.05-.06c-.06-.08-.13-.16-.2-.24-.14-.15-.29-.29-.44-.42-.15-.12-.3-.23-.46-.34.3-.17.62-.31.95-.44.36-.14.74-.25,1.12-.35l.14-.04s.1-.02.14-.03l.29-.06.29-.06.3-.05c.2-.04.4-.08.6-.11.2-.04.4-.08.6-.13.4-.09.79-.19,1.18-.29.39-.11.78-.22,1.16-.34.77-.25,1.52-.54,2.24-.87.72-.33,1.42-.71,2.08-1.14.66-.43,1.27-.91,1.82-1.45.27-.27.53-.55.76-.85.12-.15.23-.3.33-.46.1-.16.2-.32.27-.48-.08.16-.18.32-.29.47Z"/><path class="cls-26" d="m38.19,54.16c.16-.99-.46-1.78-1.64-2.06h0c-.16.99.46,1.78,1.64,2.06,0,0,0,0,0,0Z"/><path class="cls-22" d="m37.64,54.9c-1.12-.4-2.24-.14-2.94.69h0s0,0,0,0c1.12.4,2.24.14,2.94-.69,0,0,0,0,0,0Z"/><path class="cls-23" d="m36.01,53.76c.16-.94-.42-1.7-1.54-1.97h0c-.17.94.42,1.7,1.54,1.97,0,0,0,0,0,0Z"/><path class="cls-21" d="m35.27,54.42c-1.07-.39-2.13-.14-2.8.65h0,0c1.07.39,2.13.14,2.8-.65,0,0,0,0,0,0Z"/><path class="cls-24" d="m33.89,53.28c.22-.91-.3-1.67-1.38-1.99h0c-.22.91.3,1.67,1.38,1.99,0,0,0,0,0,0Z"/><path class="cls-34" d="m33.3,53.99c-.87-.59-1.95-.58-2.83.03h0c.87.59,1.95.58,2.83-.03,0,0,0,0,0,0Z"/><path class="cls-36" d="m31.6,52.56c.28-.85-.15-1.59-1.14-1.95h0c-.28.85.15,1.59,1.14,1.95,0,0,0,0,0,0Z"/><path class="cls-35" d="m31.03,53.12c-.74-.63-1.75-.72-2.66-.23h0c.74.64,1.75.72,2.66.23,0,0,0,0,0,0Z"/><path class="cls-33" d="m29.42,51.71c.38-.76.08-1.49-.77-1.9h0c-.38.76-.08,1.49.77,1.9,0,0,0,0,0,0Z"/><path class="cls-37" d="m28.91,52.1c-.57-.67-1.48-.86-2.39-.51h0c.57.67,1.48.86,2.39.51,0,0,0,0,0,0Z"/><path class="cls-38" d="m27.84,50.63c.37-.64.17-1.27-.53-1.67h0c-.37.64-.17,1.27.53,1.67,0,0,0,0,0,0Z"/><path class="cls-40" d="m27.15,50.92c-.43-.6-1.19-.82-2-.57h0c.43.6,1.19.82,2,.57,0,0,0,0,0,0Z"/><path class="cls-42" d="m26.5,49.46c.3-.56.09-1.1-.53-1.42h0c-.3.56-.1,1.1.53,1.43,0,0,0,0,0,0Z"/><path class="cls-41" d="m25.87,49.71c-.13-.59-.67-.95-1.42-.94h0c.13.59.67.95,1.42.94h0Z"/><path class="cls-39" d="m25.27,48.32c.21-.49,0-.94-.56-1.18h0c-.21.49,0,.94.56,1.18,0,0,0,0,0,0Z"/><path class="cls-8" d="m27.95,41.44v.15s-.02.22-.06.57c-.03.27-.04.47-.04.62,0,.18,0,.33,0,.45,0,.04,0,.09,0,.15,0,.07-.02.1-.05.1s-.07-.03-.1-.09c-.14-.22-.28-.36-.44-.43-.47.39-.97.58-1.51.58-.82,0-1.54-.3-2.17-.89-.66-.63-.99-1.42-.99-2.38s.3-1.7.9-2.32c.6-.62,1.34-.93,2.24-.93.41,0,.78.09,1.11.27.19.1.32.15.41.15.13,0,.25-.06.37-.17.08-.08.13-.13.15-.13.02,0,.04.02.04.06,0,.02,0,.05,0,.08-.04.21-.06.46-.06.76,0,.03,0,.15,0,.37v.63c0,.11-.03.16-.09.16-.05,0-.1-.12-.15-.35-.23-1.09-.74-1.64-1.55-1.64-.64,0-1.1.4-1.39,1.2-.2.55-.3,1.2-.3,1.96,0,1.13.24,1.96.71,2.49.25.28.58.42.98.42.88,0,1.46-.57,1.73-1.71.04-.19.09-.28.15-.28.06,0,.09.04.08.12Z"/><path class="cls-8" d="m35.32,43.43s-.03.05-.08.05c-.04,0-.08,0-.12,0-.22-.03-.83-.04-1.84-.04h-.72c-.19,0-.29-.02-.29-.08,0-.05.08-.08.23-.09.14,0,.26-.03.36-.08.1-.05.15-.1.15-.16,0-.04.01-.14.02-.3v-2.56h-2.23v2.81c0,.16.13.25.38.28.19.02.31.04.34.05.03,0,.05.03.05.06,0,.04-.03.05-.09.05-.08,0-.3,0-.65-.02s-.5-.02-.44-.02c-.04,0-.23,0-.58.02-.35.01-.68.02-.99.02h-.09c-.11,0-.17-.03-.17-.08,0-.05.04-.07.13-.07.29,0,.5-.04.61-.11.05-.03.08-.19.08-.48v-5.01c0-.19-.05-.31-.16-.35-.11-.04-.28-.06-.53-.06-.08,0-.12-.02-.12-.07,0-.03.03-.05.1-.05-.02,0,.21,0,.71,0h2.07c.09,0,.13.03.13.09,0,.04-.02.07-.05.08-.03,0-.14.02-.32.02-.18,0-.29.04-.33.11-.04.07-.06.2-.06.38v2.15h.22c.62.02,1.29.02,2.01-.02v-2.03c0-.41-.15-.62-.46-.62-.21,0-.31-.03-.31-.08,0-.05.04-.07.12-.07h2.84c.06,0,.09.02.09.05,0,.04-.12.07-.35.09-.23.02-.38.07-.43.14-.06.08-.08.26-.08.57v4.47c0,.39.05.63.15.71.1.08.28.13.53.14.12,0,.18.04.18.11Z"/><path class="cls-8" d="m41.91,40.29c0,.91-.29,1.68-.88,2.31s-1.3.94-2.15.94-1.54-.32-2.14-.95c-.59-.64-.89-1.4-.89-2.3s.3-1.69.89-2.31c.59-.62,1.32-.93,2.2-.93s1.55.31,2.12.93c.57.62.85,1.39.85,2.31Zm-1.65.14c0-1.2-.15-2.09-.44-2.67-.19-.38-.5-.56-.92-.56s-.76.26-1.02.79c-.25.53-.38,1.23-.38,2.12,0,1.28.22,2.24.67,2.88.19.27.46.4.82.4.41,0,.7-.19.87-.57.26-.59.39-1.39.39-2.38Z"/><path class="cls-8" d="m45.51,43.36c0,.05-.04.08-.12.08-.04,0-.08,0-.12,0-.38-.02-.7-.03-.97-.03s-.69,0-1.24.03c-.18,0-.32,0-.4,0-.09,0-.14-.03-.14-.08,0-.03.02-.05.05-.05.03,0,.15-.01.36-.02.19-.04.31-.09.34-.17.03-.08.05-.32.05-.73v-4.71c0-.11,0-.16,0-.15,0-.15-.16-.23-.47-.23-.18,0-.26-.02-.26-.06s.01-.07.04-.07c.02,0,.11,0,.24,0-.06,0,.05,0,.34,0h2.13c.08,0,.12.02.12.07,0,.03-.01.06-.04.06-.03,0-.12.02-.29.02-.19.01-.31.05-.36.12l-.03.17v5.13c0,.26.03.41.09.46.06.05.26.08.6.1.06,0,.08.03.08.08Z"/><path class="cls-8" d="m51.47,41.44v.15s-.02.22-.06.57c-.03.27-.04.47-.04.62,0,.18,0,.33,0,.45,0,.04,0,.09,0,.15,0,.07-.02.1-.05.1s-.07-.03-.1-.09c-.14-.22-.28-.36-.44-.43-.47.39-.97.58-1.51.58-.82,0-1.54-.3-2.17-.89-.66-.63-.99-1.42-.99-2.38s.3-1.7.9-2.32c.6-.62,1.34-.93,2.24-.93.41,0,.78.09,1.11.27.19.1.32.15.41.15.13,0,.25-.06.37-.17.08-.08.13-.13.15-.13.02,0,.04.02.04.06,0,.02,0,.05,0,.08-.04.21-.06.46-.06.76,0,.03,0,.15,0,.37v.63c0,.11-.03.16-.09.16-.05,0-.1-.12-.15-.35-.23-1.09-.74-1.64-1.55-1.64-.64,0-1.1.4-1.39,1.2-.2.55-.3,1.2-.3,1.96,0,1.13.24,1.96.71,2.49.25.28.58.42.98.42.88,0,1.46-.57,1.73-1.71.04-.19.09-.28.15-.28.06,0,.09.04.08.12Z"/><path class="cls-8" d="m57.39,41.84s0,.29,0,.85c0,.29-.01.5-.01.63,0,.13,0,.19,0,.18-1.65-.07-3.09-.09-4.33-.06h-.79c-.11,0-.17-.02-.17-.07,0-.03.01-.05.04-.06s.12-.01.29-.03c.29-.02.45-.1.48-.25.01-.08.02-.17.02-.26v-4.6c0-.36,0-.56,0-.6,0-.1-.04-.16-.09-.2-.06-.04-.17-.05-.35-.05-.19,0-.29-.03-.29-.08,0-.06.09-.09.26-.09s.41,0,.72,0c1.15-.02,2.09-.03,2.82-.02h.64c.14,0,.31,0,.51-.03l.08.99c.03.32.05.51.05.58,0,.06-.03.09-.09.09s-.1-.08-.12-.24c-.06-.42-.23-.72-.52-.91-.29-.19-.72-.29-1.29-.29-.18,0-.48,0-.9.03v2.68c.69,0,1.13-.04,1.3-.14.18-.1.3-.36.36-.78.03-.22.08-.34.14-.34.06,0,.08.05.08.16s0,.33-.03.67c0,.12,0,.27,0,.46,0,.52,0,.92.02,1.18,0,.04,0,.08,0,.14,0,.07-.03.11-.08.11-.04,0-.07-.01-.08-.04-.01-.03-.03-.13-.06-.3-.06-.43-.15-.7-.26-.8s-.36-.16-.76-.16h-.64v3.06h.6c.69-.01,1.11-.03,1.26-.05.19-.02.37-.09.55-.2.16-.12.26-.25.32-.39.06-.14.12-.4.19-.77.02-.09.05-.14.09-.14.05,0,.08.05.08.14Z"/><path class="cls-4" d="m57.04,19.56c0-.15.12-.27.26-.27s.26.12.26.27-.12.27-.26.27-.26-.11-.26-.27m.26.32c.18,0,.33-.14.33-.32s-.15-.32-.33-.32-.33.14-.33.32.15.32.33.32m-.07-.3h.06l.1.16h.06l-.11-.16c.05,0,.1-.04.1-.1,0-.07-.04-.11-.13-.11h-.14v.37h.06v-.16Zm0-.05v-.12h.08s.08,0,.08.05c0,.06-.04.06-.09.06h-.07Z"/><path class="cls-4" d="m44.98,22.33h0c0-.11-.03-.17-.13-.17-.01,0-.02,0-.03,0-.07.02-.1.12-.11.17h0s-.01.04-.02.05h0v.02c-.25.72-.8,1.18-1.37,1.15-.48-.03-.81-.22-.97-.56,0-.02-.21-.5-.21-1.2,0-1.46.32-2,1.19-2,.25,0,.83.12.83.35,0,.02-.04.05-.08.09-.1.08-.25.2-.25.47,0,.3.21.51.51.51.32,0,.49-.29.49-.57,0-.82-.97-1.11-1.62-1.11-.53,0-2.06.42-2.06,2.27,0,.57.37,2.04,2.08,2.04,1.14-.04,1.52-.77,1.72-1.41v-.04s.01,0,.01,0c0-.02,0-.04,0-.06"/><path class="cls-4" d="m57.52,22.33h0c0-.12-.04-.18-.13-.17-.01,0-.02,0-.03,0-.07.02-.1.12-.12.17h0s0,.03-.01.05h0v.02c-.15.68-.84,1.15-1.37,1.15-1.01,0-1.2-.65-1.2-1.78v-.38h2.62c.12,0,.28.03.23-.3-.13-.93-.84-1.57-1.83-1.57-1.27,0-2.03,1.18-2.03,2.32s1.06,1.98,2.06,1.98,1.62-.51,1.81-1.41v-.04s0,0,0,0c0-.02,0-.03,0-.05m-2.76-1.93c.03-.1.31-.62.87-.62.41,0,.9.16.9.93v.31h-1.87c.01-.26.04-.47.1-.63"/><path class="cls-4" d="m49.23,22.93c-.01-.12-.05-.16-.13-.14-.07.01-.09.11-.1.16h0v.02c-.09.29-.2.43-.33.43-.17,0-.18-.11-.18-.44v-2.41c0-.41,0-1.02-1.41-1.02-1.2,0-1.65.61-1.65,1,0,.31.18.52.46.52s.45-.18.45-.46c0-.24-.15-.35-.24-.41-.03-.02-.06-.05-.06-.06,0-.25.67-.33.91-.33.21,0,.7.06.7.59v.93c-1.58,0-2.51.55-2.54,1.5,0,.66.43,1.02,1.22,1.02.55,0,1.02-.21,1.35-.59.09.38.32.59.67.59.48,0,.86-.37.89-.86v-.03s0-.01,0-.01Zm-1.59-.43c0,.39-.12.5-.2.58l-.02.02c-.24.21-.44.28-.76.28-.45,0-.75-.3-.75-.77,0-.65.58-1,1.72-1.02v.91Z"/><path class="cls-5" d="m40.94,22.41c0-.68-.31-1.02-1.08-1.18-1.54-.31-1.61-.46-1.61-.73,0-.07.04-.3.22-.48.16-.16.4-.24.7-.23.68.03.96.57,1.07,1.01,0,0,0,0,0,.02.03.16.28.17.28,0v-1.15h0c0-.07-.03-.11-.1-.12,0,0,0,0-.01,0,0,0,0,0,0,0-.07,0-.12.09-.14.13-.04.07-.12.18-.14.21-.3-.24-.62-.36-.93-.36-1.1,0-1.4.8-1.4,1.28,0,.86.54.99,1.17,1.14l.11.02c.78.2,1.37.38,1.37.76,0,.19-.07.35-.18.48h0s-.02.02-.02.02c-.19.21-.48.33-.76.33-.7,0-1.24-.48-1.46-1.28v-.02s0,0,0,0c-.01-.05-.03-.15-.1-.16-.02,0-.03,0-.04,0-.06,0-.09.05-.1.16h0s0,.06,0,.06v1.31h0c0,.12.02.17.11.17.05,0,.1-.07.12-.12.03-.05.19-.31.22-.35.3.31.74.5,1.19.5.43,0,.81-.14,1.09-.4l.02-.02h0c.25-.25.39-.59.39-.99m-2.91-.15h0,0s0,0,0,0"/><path class="cls-4" d="m51.52,19.53c-.51,0-.96.28-1.23.74v-.67c0-.07-.04-.07-.07-.06,0,0,0,0-.01,0,0,0-.01,0-.01,0h0c-.18.04-.35.06-.51.07-.19.02-.47.02-.47.02h-.03c-.12,0-.17.04-.16.12,0,.06.09.08.14.1.1.02.11.02.22.06.03,0,.07.01.07.09v-.02c0,.39,0,4.96,0,5.27,0,.31.01.29.32.29h.58s.02,0,.02,0c.27,0,.4,0,.38-.12-.01-.06-.1-.08-.15-.09-.2-.06-.3-.24-.31-.47,0,0,0-1.21,0-1.67.27.43.65.64,1.16.64,1.27,0,1.95-1.06,1.95-2.07,0-1.64-1.14-2.24-1.91-2.24m-.11,4.04c-.28,0-.73-.24-.89-.57-.16-.3-.2-.46-.2-1.13v-.13c0-.25,0-.52.04-.8.14-.91.83-1.11,1.08-1.11.75,0,1.01.5,1.01,1.9,0,1.83-.55,1.83-1.04,1.83"/><path class="cls-9" d="m29.32,23.51c-.19-.07-.33-.29-.33-.4,0-.11-.12-5.09-.12-5.09,0-.26,0-.45-.06-.47-.08-.03-.44-.02-.53-.02-.22,0-.39,0-.43.04-.04.05-.13.23-.22.47l-.46,1.01c-.12.23-.32.62-.44.85l-.69,1.34c-.12.23-.32.23-.44,0l-.72-1.33c-.12-.23-.33-.6-.45-.82l-.51-1.07c-.1-.24-.15-.42-.2-.47-.04-.04-.22-.04-.48-.04h-.61c-.3,0-.44,0-.42.13.01.07.11.09.16.1.19.05.26.28.26.39s0,4.65-.03,4.85c0,.03,0,.07-.02.1,0,0,0,0,0,0-.04.19-.14.34-.33.4-.05.01-.15.03-.16.1-.02.13.12.13.42.13h.2s.03,0,.05,0c0,0,0,0,0,0h.74c.3,0,.44,0,.42-.13-.01-.07-.12-.09-.16-.1-.19-.05-.26-.17-.33-.4,0,0,0,0,0,0-.03-.14-.05-.34-.05-.34-.01-.26-.02-.68-.01-.94v-.08c0-.26,0-.68.02-.94l.02-1.02c0-.26.11-.28.23-.06l.67,1.24c.12.23.76,1.44.88,1.67.1.2.12.27.42.27.34,0,.34-.09.48-.39.1-.22,1.54-3.05,1.54-3.05.12-.23.22-.21.23.05,0,0,.02,3.45,0,3.6,0,.02,0,.04,0,.05-.05.15-.15.26-.31.31-.05.01-.15.03-.16.1-.02.13.12.13.42.13h.63s.28,0,.28,0h.15s0,0,.01,0h.19c.3,0,.44,0,.42-.13-.01-.07-.12-.09-.16-.1"/><path class="cls-10" d="m37.64,23.61s-.08-.07-.13-.08h-.03c-.15-.06-.28-.25-.34-.37-.02-.06-.03-.14-.03-.2,0-.16-.01-.55-.02-1.05v-4.03s0-.06,0-.06c0-.3.03-.28-.35-.3h-.65s-.02,0-.02,0c-.27,0-.4,0-.38.12,0,.06.1.08.15.09.2.06.3.24.31.47v2h-.02c-.28-.54-.89-.66-1.22-.66-1.21,0-1.89.98-1.89,2.12,0,.1,0,.21.02.31.02.16.09.42.08.41.25.83.88,1.43,1.69,1.43.47,0,1.07-.21,1.33-.66h.02s.02.09.02.3c0,.28-.02.28.29.28h.75c.23,0,.37,0,.41-.05.01-.01.02-.03.02-.05,0,0,0-.01,0-.02m-1.99-.31c-.13.11-.43.27-.68.27-.78,0-1-.44-1-2.06,0-.84.07-1.73.95-1.73.58,0,.99.37,1.17,1.04.07.23.07.74.07.9,0,1.04-.12,1.24-.51,1.58"/><path class="cls-9" d="m33.28,21.25c-.12.29-.35.72-.53.96-.04.05-.92,1.12-1.84,1.12-.42,0-.74-.24-.74-.69,0-.24.02-.44.07-.67.97-.09,2.69-.54,2.69-1.76,0-.49-.48-.64-.88-.64-1.31,0-2.6,1.6-2.6,3.04,0,.6.28,1.22,1.11,1.22,1.29,0,2.09-1.03,2.36-1.43.06-.08.16-.26.21-.36m-1.29-2.18c.24,0,.37.15.37.39,0,.98-1.09,1.42-1.92,1.47.15-.6.86-1.86,1.55-1.86"/><path class="cls-8" d="m23.21,29.25c0,.52-.2.95-.58,1.26s-.91.48-1.55.48c-.16,0-.4-.02-.69-.06v2.34c0,.34.02.53.07.59.05.06.21.09.51.11.16,0,.25.02.25.08,0,.05-.05.08-.15.08h-2.41c-.2,0-.32,0-.35-.02-.03-.01-.05-.03-.05-.05,0-.05.05-.07.15-.07.3,0,.48-.03.53-.08.06-.05.09-.19.09-.42v-4.71c0-.39-.01-.63-.05-.71s-.19-.12-.47-.12c-.16,0-.25-.02-.25-.07,0-.05.08-.08.23-.08h2.61c.64,0,1.12.09,1.43.28.45.28.68.67.68,1.17Zm-1.47.05c0-.9-.28-1.36-.85-1.36-.34,0-.51.15-.51.45v2.4c.25,0,.42,0,.51-.03.18-.03.33-.1.46-.21.26-.23.39-.65.39-1.26Z"/><path class="cls-8" d="m29.23,33.75c0,.34-.22.51-.67.51-.56,0-1.01-.18-1.34-.53-.26-.27-.41-.57-.45-.88l-.09-.75c-.06-.48-.17-.81-.33-1-.16-.19-.42-.28-.78-.27v2.08c0,.48,0,.74,0,.78,0,.1.04.18.13.22.09.04.25.06.48.06.15,0,.22.03.22.08,0,.05-.04.07-.11.07h-2.76c-.09,0-.13-.02-.13-.07,0-.05.12-.08.37-.09.21-.01.33-.06.37-.15.02-.04.03-.17.03-.38v-4.72c0-.32,0-.51-.02-.56-.01-.06-.05-.1-.12-.13-.08-.04-.22-.05-.41-.05-.13,0-.2-.03-.2-.08,0-.04.03-.07.08-.08.05,0,.2-.01.44-.01h1.83c.85,0,1.43.07,1.74.2.24.1.44.26.58.47.15.21.22.45.22.7,0,.58-.3,1.02-.91,1.3-.27.12-.66.21-1.19.27v.05c.65.04,1.13.22,1.43.52.3.31.48.81.54,1.49.05.55.12.89.23,1.03.1.14.21.21.32.21.09,0,.14-.02.14-.07,0-.02-.03-.06-.1-.1s-.1-.1-.1-.18c0-.16.09-.25.27-.25s.27.1.27.31Zm-2.31-4.61c0-.79-.31-1.18-.93-1.18-.2,0-.33.07-.37.2-.03.09-.05.42-.05,1v1.52c.47,0,.82-.11,1.03-.36.21-.24.32-.64.32-1.18Z"/><path class="cls-8" d="m35.34,30.96c0,.91-.28,1.68-.85,2.32s-1.27.95-2.1.95-1.5-.32-2.08-.96c-.58-.64-.87-1.41-.87-2.31s.29-1.7.86-2.32c.58-.62,1.29-.93,2.14-.93s1.51.31,2.06.94c.55.62.83,1.4.83,2.32Zm-1.61.14c0-1.21-.14-2.1-.43-2.68-.19-.38-.49-.57-.89-.57s-.74.26-.99.79c-.25.53-.37,1.24-.37,2.12,0,1.29.22,2.25.66,2.89.18.27.45.4.79.4.4,0,.68-.19.85-.57.26-.6.38-1.39.38-2.39Z"/><path class="cls-8" d="m41.27,27.89s-.03.07-.09.07c-.32.01-.53.05-.61.11-.08.06-.17.23-.27.51-.05.13-.12.33-.22.6-.32.89-.84,2.4-1.56,4.53-.1.3-.17.46-.21.46-.05,0-.1-.05-.14-.16-.08-.25-.18-.53-.3-.85-.18-.49-.43-1.15-.74-1.96-.13-.36-.34-.89-.62-1.6-.15-.38-.3-.81-.46-1.28-.08-.26-.24-.38-.49-.37h-.3c-.07,0-.11-.03-.11-.08s.11-.08.33-.08h2.65c.12,0,.17.03.17.08,0,.05-.11.08-.32.08-.35,0-.52.06-.52.16,0,.01.05.17.16.48.46,1.39.87,2.53,1.23,3.41.08-.19.23-.6.44-1.21.05-.16.18-.54.38-1.11.28-.83.42-1.33.42-1.51,0-.11-.05-.17-.14-.19-.04,0-.18-.01-.42-.02-.12,0-.18-.03-.18-.09,0-.05.04-.08.13-.08h1.65c.09,0,.14.03.14.1Z"/><path class="cls-8" d="m43.79,34.04c0,.05-.04.08-.12.08-.04,0-.08,0-.12,0-.37-.02-.68-.03-.94-.03s-.68,0-1.21.03c-.18,0-.31,0-.39,0-.09,0-.14-.03-.14-.08,0-.03.02-.05.05-.05s.15-.01.35-.02c.19-.04.3-.09.33-.17.03-.08.05-.32.05-.74v-4.73c0-.11,0-.16,0-.16,0-.15-.15-.23-.46-.23-.17,0-.26-.02-.26-.06s.01-.07.04-.07c.02,0,.1,0,.24,0-.06,0,.05,0,.33,0h2.07c.08,0,.12.02.12.07,0,.03-.01.06-.04.06-.03,0-.12.02-.28.02-.19.01-.3.05-.35.12l-.03.17v5.15c0,.26.03.42.09.47.06.05.25.08.59.1.05,0,.08.03.08.08Z"/><path class="cls-8" d="m50.14,30.91c0,.69-.16,1.29-.47,1.8-.33.53-.81.92-1.43,1.16-.43.16-1.06.25-1.91.25h-2.23c-.09,0-.14-.02-.14-.07,0-.06.08-.09.26-.08.26,0,.42-.04.47-.14.02-.04.04-.23.04-.56v-4.65c0-.27-.02-.43-.05-.49-.06-.11-.22-.16-.47-.16-.13,0-.2-.02-.2-.09,0-.05.04-.08.13-.08h.16c.37,0,.72,0,1.06,0,.49,0,.86,0,1.13,0,1.11,0,1.96.23,2.55.68.74.57,1.11,1.38,1.11,2.41Zm-1.58,0c0-1.01-.15-1.74-.45-2.21-.3-.47-.77-.7-1.41-.7-.23,0-.38.02-.46.07-.1.06-.15.2-.15.43v4.68c0,.4.02.63.07.67.07.07.23.1.48.1,1.27,0,1.9-1.02,1.9-3.05Z"/><path class="cls-8" d="m55.64,32.51s0,.3,0,.85c0,.29-.01.5-.01.63,0,.13,0,.19,0,.18-1.61-.07-3.01-.09-4.22-.06h-.77c-.11,0-.16-.02-.16-.07,0-.03.01-.05.04-.06.03,0,.12-.01.28-.03.29-.02.44-.1.47-.25.01-.08.02-.17.02-.26v-4.62c0-.36,0-.56,0-.6,0-.1-.04-.16-.09-.2-.05-.04-.17-.05-.34-.05-.19,0-.28-.03-.28-.08,0-.06.08-.09.25-.09s.4,0,.7,0c1.12-.02,2.04-.03,2.75-.02h.62c.13,0,.3,0,.49-.03l.08,1c.03.32.05.51.05.58,0,.06-.03.09-.09.09s-.1-.08-.12-.24c-.05-.42-.22-.73-.51-.92-.28-.19-.7-.29-1.26-.29-.17,0-.46,0-.88.03v2.69c.67,0,1.1-.04,1.27-.14s.29-.36.35-.78c.03-.23.08-.34.14-.34.05,0,.08.05.08.16s0,.33-.03.68c0,.12,0,.27,0,.47,0,.52,0,.92.02,1.19,0,.04,0,.08,0,.14,0,.07-.03.11-.08.11-.04,0-.07-.01-.08-.04-.01-.03-.03-.13-.05-.3-.06-.43-.15-.7-.25-.81s-.35-.16-.74-.16h-.62v3.07h.59c.67-.01,1.08-.03,1.23-.05.18-.02.36-.09.53-.2.15-.12.26-.25.32-.39.06-.14.12-.4.19-.78.02-.09.05-.14.09-.14.05,0,.07.05.07.14Z"/><path class="cls-8" d="m61.75,33.75c0,.34-.22.51-.67.51-.56,0-1.01-.18-1.34-.53-.26-.27-.41-.57-.45-.88l-.09-.75c-.06-.48-.17-.81-.33-1-.16-.19-.42-.28-.78-.27v2.08c0,.48,0,.74,0,.78,0,.1.04.18.13.22.09.04.25.06.48.06.15,0,.22.03.22.08,0,.05-.04.07-.11.07h-2.76c-.09,0-.13-.02-.13-.07,0-.05.12-.08.37-.09.21-.01.33-.06.37-.15.02-.04.03-.17.03-.38v-4.72c0-.32,0-.51-.02-.56-.01-.06-.05-.1-.12-.13-.08-.04-.22-.05-.41-.05-.13,0-.2-.03-.2-.08,0-.04.03-.07.08-.08.05,0,.2-.01.44-.01h1.83c.85,0,1.43.07,1.74.2.24.1.44.26.58.47.15.21.22.45.22.7,0,.58-.3,1.02-.91,1.3-.27.12-.66.21-1.19.27v.05c.65.04,1.13.22,1.43.52.3.31.48.81.54,1.49.05.55.12.89.23,1.03.1.14.21.21.32.21.09,0,.14-.02.14-.07,0-.02-.03-.06-.1-.1s-.1-.1-.1-.18c0-.16.09-.25.27-.25s.27.1.27.31Zm-2.31-4.61c0-.79-.31-1.18-.93-1.18-.2,0-.33.07-.37.2-.03.09-.05.42-.05,1v1.52c.47,0,.82-.11,1.03-.36.21-.24.32-.64.32-1.18Z"/></svg>